<svg width="1440" height="1024" viewBox="0 0 1440 1024" fill="none" xmlns="http://www.w3.org/2000/svg">
<g clip-path="url(#clip0_67_239)">
<rect width="1440" height="1024" fill="white"/>
<path d="M1417.5 -248L1674.28 -99.75V196.75L1417.5 345L1160.72 196.75V-99.75L1417.5 -248Z" fill="#EDEDED"/>
<path d="M-35.5 100L106.961 182.25V346.75L-35.5 429L-177.961 346.75V182.25L-35.5 100Z" fill="#EDEDED"/>
<path d="M25.7416 472.155L71.2365 472.839L93.3917 512.581L70.0521 551.638L24.5572 550.955L2.40199 511.213L25.7416 472.155Z" fill="#EDEDED"/>
<path d="M165.5 153L217.895 183.25V243.75L165.5 274L113.105 243.75V183.25L165.5 153Z" fill="#EDEDED"/>
<path d="M1032.5 -12L1151.58 56.75V194.25L1032.5 263L913.422 194.25V56.75L1032.5 -12Z" fill="#EDEDED"/>
<path d="M1355.45 679.783L1393.62 668.582L1422.4 696.035L1413.02 734.688L1374.85 745.889L1346.07 718.436L1355.45 679.783Z" fill="#EDEDED"/>
<path d="M1156.5 200L1210.63 231.25V293.75L1156.5 325L1102.37 293.75V231.25L1156.5 200Z" fill="#EDEDED"/>
<path d="M1462.85 366.991L1526.62 452.292L1484.63 550.164L1378.87 562.736L1315.11 477.434L1357.1 379.562L1462.85 366.991Z" fill="#EDEDED"/>
<path d="M-119.513 683.278L46.6039 634.527L171.882 754.014L131.043 922.251L-35.0748 971.002L-160.353 851.515L-119.513 683.278Z" fill="#EDEDED"/>
<path d="M1362.49 858.278L1528.6 809.527L1653.88 929.014L1613.04 1097.25L1446.93 1146L1321.65 1026.52L1362.49 858.278Z" fill="#EDEDED"/>
<path d="M109.832 -139L246.664 -60V98L109.832 177L-27 98V-60L109.832 -139Z" fill="#EDEDED"/>
</g>
<defs>
<clipPath id="clip0_67_239">
<rect width="1440" height="1024" fill="white"/>
</clipPath>
</defs>
</svg>
