<svg width="470" height="470" viewBox="0 0 470 470" fill="none" xmlns="http://www.w3.org/2000/svg">
<path d="M234.998 127.287C232.522 127.287 230.516 125.277 230.516 122.805V67.1247C230.516 64.6482 232.526 62.6425 234.998 62.6425C237.475 62.6425 239.48 64.652 239.48 67.1247V122.801C239.484 125.277 237.475 127.287 234.998 127.287Z" fill="black"/>
<path d="M234.998 198.285C232.522 198.285 230.516 196.276 230.516 193.803V166.764C230.516 164.288 232.526 162.282 234.998 162.282C237.475 162.282 239.48 164.291 239.48 166.764V193.803C239.484 196.279 237.475 198.285 234.998 198.285Z" fill="black"/>
<path d="M234.998 23.5913C232.522 23.5913 230.516 21.5818 230.516 19.1091V4.4822C230.516 2.00579 232.526 0 234.998 0C237.475 0 239.48 2.00952 239.48 4.4822V19.1091C239.484 21.5855 237.475 23.5913 234.998 23.5913Z" fill="black"/>
<path d="M234.998 53.7902C240.551 53.7902 245.053 49.2884 245.053 43.7351C245.053 38.1819 240.551 33.6801 234.998 33.6801C229.445 33.6801 224.943 38.1819 224.943 43.7351C224.943 49.2884 229.445 53.7902 234.998 53.7902Z" fill="black"/>
<path d="M234.998 152.387C239.242 152.387 242.681 148.947 242.681 144.704C242.681 140.461 239.242 137.021 234.998 137.021C230.755 137.021 227.315 140.461 227.315 144.704C227.315 148.947 230.755 152.387 234.998 152.387Z" fill="black"/>
<path d="M234.998 407.357C232.522 407.357 230.516 405.348 230.516 402.875V347.195C230.516 344.719 232.526 342.713 234.998 342.713C237.475 342.713 239.48 344.722 239.48 347.195V402.872C239.484 405.348 237.475 407.357 234.998 407.357Z" fill="black"/>
<path d="M234.998 307.714C232.522 307.714 230.516 305.705 230.516 303.232V276.193C230.516 273.717 232.526 271.711 234.998 271.711C237.475 271.711 239.48 273.721 239.48 276.193V303.232C239.484 305.709 237.475 307.714 234.998 307.714Z" fill="black"/>
<path d="M234.998 470C232.522 470 230.516 467.99 230.516 465.518V450.891C230.516 448.414 232.526 446.409 234.998 446.409C237.475 446.409 239.48 448.418 239.48 450.891V465.518C239.484 467.99 237.475 470 234.998 470Z" fill="black"/>
<path d="M234.998 436.316C240.551 436.316 245.053 431.814 245.053 426.261C245.053 420.708 240.551 416.206 234.998 416.206C229.445 416.206 224.943 420.708 224.943 426.261C224.943 431.814 229.445 436.316 234.998 436.316Z" fill="black"/>
<path d="M234.998 332.979C239.242 332.979 242.681 329.539 242.681 325.296C242.681 321.052 239.242 317.613 234.998 317.613C230.755 317.613 227.315 321.052 227.315 325.296C227.315 329.539 230.755 332.979 234.998 332.979Z" fill="black"/>
<path d="M192.066 135.826C190.307 135.826 188.637 134.784 187.924 133.058L166.618 81.6209C165.673 79.335 166.76 76.7129 169.046 75.7642C171.328 74.8192 173.954 75.9024 174.903 78.192L196.208 129.633C197.153 131.919 196.066 134.541 193.781 135.489C193.217 135.714 192.638 135.826 192.066 135.826Z" fill="black"/>
<path d="M219.236 201.423C217.476 201.423 215.807 200.381 215.093 198.655L204.747 173.674C203.802 171.388 204.889 168.766 207.175 167.817C209.461 166.869 212.083 167.959 213.032 170.245L223.378 195.226C224.323 197.512 223.236 200.134 220.95 201.083C220.39 201.311 219.807 201.423 219.236 201.423Z" fill="black"/>
<path d="M152.384 40.0261C150.624 40.0261 148.958 38.984 148.241 37.2584L142.642 23.7445C141.697 21.4586 142.784 18.8365 145.07 17.8878C147.352 16.939 149.974 18.0297 150.927 20.3156L156.526 33.8257C157.471 36.1117 156.384 38.7338 154.102 39.6825C153.538 39.9178 152.955 40.0261 152.384 40.0261Z" fill="black"/>
<path d="M161.808 68.3499C167.361 68.3499 171.863 63.8481 171.863 58.2948C171.863 52.7416 167.361 48.2397 161.808 48.2397C156.254 48.2397 151.752 52.7416 151.752 58.2948C151.752 63.8481 156.254 68.3499 161.808 68.3499Z" fill="black"/>
<path d="M200.444 159.26C204.687 159.26 208.127 155.82 208.127 151.577C208.127 147.334 204.687 143.894 200.444 143.894C196.201 143.894 192.761 147.334 192.761 151.577C192.761 155.82 196.201 159.26 200.444 159.26Z" fill="black"/>
<path d="M299.243 394.576C297.484 394.576 295.814 393.534 295.101 391.808L273.795 340.371C272.85 338.085 273.937 335.463 276.223 334.514C278.502 333.569 281.131 334.652 282.08 336.942L303.385 388.379C304.33 390.665 303.243 393.287 300.958 394.236C300.397 394.467 299.815 394.576 299.243 394.576Z" fill="black"/>
<path d="M261.114 302.523C259.355 302.523 257.686 301.48 256.972 299.755L246.626 274.774C245.681 272.488 246.768 269.866 249.054 268.917C251.336 267.976 253.962 269.055 254.91 271.345L265.257 296.326C266.202 298.612 265.115 301.234 262.829 302.183C262.265 302.41 261.682 302.523 261.114 302.523Z" fill="black"/>
<path d="M323.215 452.452C321.456 452.452 319.786 451.41 319.073 449.684L313.474 436.171C312.529 433.885 313.616 431.263 315.902 430.314C318.191 429.369 320.81 430.456 321.759 432.742L327.358 446.256C328.303 448.541 327.216 451.164 324.93 452.112C324.369 452.344 323.787 452.452 323.215 452.452Z" fill="black"/>
<path d="M308.193 421.757C313.746 421.757 318.248 417.255 318.248 411.702C318.248 406.148 313.746 401.646 308.193 401.646C302.639 401.646 298.137 406.148 298.137 411.702C298.137 417.255 302.639 421.757 308.193 421.757Z" fill="black"/>
<path d="M269.556 326.106C273.799 326.106 277.239 322.666 277.239 318.423C277.239 314.18 273.799 310.74 269.556 310.74C265.313 310.74 261.873 314.18 261.873 318.423C261.873 322.666 265.313 326.106 269.556 326.106Z" fill="black"/>
<path d="M155.667 160.145C154.52 160.145 153.374 159.708 152.496 158.83L113.127 119.458C111.375 117.706 111.375 114.868 113.127 113.12C114.879 111.368 117.718 111.368 119.466 113.12L158.838 152.488C160.59 154.24 160.59 157.079 158.838 158.827C157.96 159.708 156.814 160.145 155.667 160.145Z" fill="black"/>
<path d="M205.871 210.35C204.725 210.35 203.578 209.913 202.7 209.039L183.58 189.918C181.828 188.167 181.828 185.328 183.58 183.58C185.332 181.828 188.17 181.828 189.918 183.58L209.039 202.7C210.791 204.452 210.791 207.291 209.039 209.039C208.165 209.913 207.018 210.35 205.871 210.35Z" fill="black"/>
<path d="M82.3418 86.824C81.1951 86.824 80.0484 86.387 79.1707 85.5129L68.828 75.1702C67.0762 73.4185 67.0762 70.5797 68.828 68.8317C70.5798 67.0799 73.4185 67.0799 75.1666 68.8317L85.5093 79.1744C87.2611 80.9261 87.2611 83.7649 85.5093 85.5129C84.6352 86.387 83.4885 86.824 82.3418 86.824Z" fill="black"/>
<path d="M99.7551 109.81C105.308 109.81 109.81 105.308 109.81 99.7551C109.81 94.2019 105.308 89.7001 99.7551 89.7001C94.2019 89.7001 89.7001 94.2019 89.7001 99.7551C89.7001 105.308 94.2019 109.81 99.7551 109.81Z" fill="black"/>
<path d="M171.149 178.832C175.393 178.832 178.832 175.393 178.832 171.149C178.832 166.906 175.393 163.466 171.149 163.466C166.906 163.466 163.466 166.906 163.466 171.149C163.466 175.393 166.906 178.832 171.149 178.832Z" fill="black"/>
<path d="M353.705 358.188C352.559 358.188 351.412 357.751 350.534 356.873L311.166 317.504C309.414 315.752 309.414 312.914 311.166 311.166C312.917 309.414 315.756 309.414 317.504 311.166L356.873 350.534C358.625 352.286 358.625 355.125 356.873 356.873C355.999 357.747 354.852 358.188 353.705 358.188Z" fill="black"/>
<path d="M283.249 287.731C282.102 287.731 280.956 287.294 280.078 286.416L260.958 267.296C259.206 265.544 259.206 262.706 260.958 260.958C262.709 259.206 265.548 259.206 267.296 260.958L286.416 280.078C288.168 281.83 288.168 284.668 286.416 286.416C285.542 287.294 284.396 287.731 283.249 287.731Z" fill="black"/>
<path d="M397.997 402.479C396.85 402.479 395.704 402.042 394.826 401.165L384.483 390.822C382.731 389.07 382.731 386.231 384.483 384.483C386.235 382.731 389.074 382.731 390.822 384.483L401.165 394.826C402.916 396.578 402.916 399.416 401.165 401.165C400.294 402.042 399.148 402.479 397.997 402.479Z" fill="black"/>
<path d="M370.241 380.296C375.794 380.296 380.296 375.794 380.296 370.241C380.296 364.688 375.794 360.186 370.241 360.186C364.688 360.186 360.186 364.688 360.186 370.241C360.186 375.794 364.688 380.296 370.241 380.296Z" fill="black"/>
<path d="M298.847 306.53C303.09 306.53 306.53 303.091 306.53 298.847C306.53 294.604 303.09 291.164 298.847 291.164C294.604 291.164 291.164 294.604 291.164 298.847C291.164 303.091 294.604 306.53 298.847 306.53Z" fill="black"/>
<path d="M131.34 196.545C130.768 196.545 130.186 196.436 129.629 196.205L78.192 174.899C75.9061 173.951 74.8191 171.332 75.7641 169.043C76.7091 166.753 79.3312 165.673 81.6209 166.615L133.062 187.92C135.348 188.869 136.434 191.491 135.489 193.777C134.769 195.502 133.099 196.545 131.34 196.545Z" fill="black"/>
<path d="M196.937 223.718C196.365 223.718 195.783 223.61 195.226 223.378L170.245 213.032C167.959 212.083 166.872 209.464 167.817 207.175C168.762 204.889 171.388 203.802 173.674 204.747L198.655 215.093C200.941 216.042 202.028 218.664 201.083 220.95C200.366 222.676 198.696 223.718 196.937 223.718Z" fill="black"/>
<path d="M35.5401 156.866C34.9687 156.866 34.386 156.757 33.8257 156.526L20.3119 150.927C18.0259 149.978 16.939 147.356 17.8877 145.07C18.8327 142.784 21.4548 141.697 23.7445 142.646L37.2546 148.245C39.5405 149.194 40.6274 151.816 39.6824 154.102C38.969 155.824 37.2994 156.866 35.5401 156.866Z" fill="black"/>
<path d="M58.2948 171.863C63.8481 171.863 68.3499 167.361 68.3499 161.808C68.3499 156.254 63.8481 151.752 58.2948 151.752C52.7416 151.752 48.2397 156.254 48.2397 161.808C48.2397 167.361 52.7416 171.863 58.2948 171.863Z" fill="black"/>
<path d="M151.577 208.127C155.82 208.127 159.26 204.687 159.26 200.444C159.26 196.201 155.82 192.761 151.577 192.761C147.334 192.761 143.894 196.201 143.894 200.444C143.894 204.687 147.334 208.127 151.577 208.127Z" fill="black"/>
<path d="M390.094 303.725C389.522 303.725 388.939 303.617 388.379 303.385L336.942 282.076C334.656 281.127 333.569 278.505 334.518 276.219C335.467 273.933 338.085 272.843 340.375 273.795L391.815 295.104C394.101 296.053 395.188 298.675 394.24 300.961C393.519 302.683 391.849 303.725 390.094 303.725Z" fill="black"/>
<path d="M298.037 265.593C297.465 265.593 296.882 265.485 296.326 265.253L271.345 254.907C269.059 253.958 267.972 251.336 268.917 249.05C269.866 246.764 272.488 245.677 274.774 246.622L299.755 256.968C302.041 257.917 303.128 260.539 302.183 262.825C301.465 264.551 299.796 265.593 298.037 265.593Z" fill="black"/>
<path d="M447.966 327.694C447.395 327.694 446.812 327.585 446.256 327.354L432.742 321.759C430.456 320.81 429.369 318.188 430.314 315.902C431.259 313.612 433.885 312.525 436.171 313.474L449.684 319.069C451.97 320.018 453.057 322.636 452.112 324.926C451.395 326.655 449.726 327.694 447.966 327.694Z" fill="black"/>
<path d="M411.701 318.247C417.255 318.247 421.757 313.746 421.757 308.192C421.757 302.639 417.255 298.137 411.701 298.137C406.148 298.137 401.646 302.639 401.646 308.192C401.646 313.746 406.148 318.247 411.701 318.247Z" fill="black"/>
<path d="M318.423 277.235C322.666 277.235 326.106 273.795 326.106 269.552C326.106 265.309 322.666 261.869 318.423 261.869C314.18 261.869 310.74 265.309 310.74 269.552C310.74 273.795 314.18 277.235 318.423 277.235Z" fill="black"/>
<path d="M122.801 239.48H67.1247C64.6482 239.48 62.6425 237.471 62.6425 234.998C62.6425 232.526 64.652 230.516 67.1247 230.516H122.801C125.277 230.516 127.283 232.526 127.283 234.998C127.283 237.471 125.277 239.48 122.801 239.48Z" fill="black"/>
<path d="M193.807 239.48H166.768C164.291 239.48 162.286 237.471 162.286 234.998C162.286 232.526 164.295 230.516 166.768 230.516H193.807C196.283 230.516 198.289 232.526 198.289 234.998C198.289 237.471 196.279 239.48 193.807 239.48Z" fill="black"/>
<path d="M19.1091 239.48H4.4822C2.00579 239.48 0 237.471 0 234.998C0 232.526 2.00952 230.516 4.4822 230.516H19.1091C21.5855 230.516 23.5913 232.526 23.5913 234.998C23.5913 237.471 21.5855 239.48 19.1091 239.48Z" fill="black"/>
<path d="M43.7388 245.053C49.2921 245.053 53.7939 240.551 53.7939 234.998C53.7939 229.445 49.2921 224.943 43.7388 224.943C38.1855 224.943 33.6837 229.445 33.6837 234.998C33.6837 240.551 38.1855 245.053 43.7388 245.053Z" fill="black"/>
<path d="M144.704 242.681C148.947 242.681 152.387 239.242 152.387 234.998C152.387 230.755 148.947 227.315 144.704 227.315C140.461 227.315 137.021 230.755 137.021 234.998C137.021 239.242 140.461 242.681 144.704 242.681Z" fill="black"/>
<path d="M402.875 239.48H347.195C344.719 239.48 342.713 237.471 342.713 234.998C342.713 232.526 344.722 230.516 347.195 230.516H402.872C405.348 230.516 407.354 232.526 407.354 234.998C407.354 237.471 405.348 239.48 402.875 239.48Z" fill="black"/>
<path d="M303.232 239.48H276.193C273.717 239.48 271.711 237.471 271.711 234.998C271.711 232.526 273.721 230.516 276.193 230.516H303.232C305.709 230.516 307.714 232.526 307.714 234.998C307.714 237.471 305.709 239.48 303.232 239.48Z" fill="black"/>
<path d="M465.514 239.48H450.887C448.411 239.48 446.405 237.471 446.405 234.998C446.405 232.526 448.414 230.516 450.887 230.516H465.514C467.99 230.516 469.996 232.526 469.996 234.998C469.996 237.471 467.99 239.48 465.514 239.48Z" fill="black"/>
<path d="M426.261 245.053C431.814 245.053 436.316 240.551 436.316 234.998C436.316 229.445 431.814 224.943 426.261 224.943C420.708 224.943 416.206 229.445 416.206 234.998C416.206 240.551 420.708 245.053 426.261 245.053Z" fill="black"/>
<path d="M325.296 242.681C329.539 242.681 332.979 239.242 332.979 234.998C332.979 230.755 329.539 227.315 325.296 227.315C321.052 227.315 317.613 230.755 317.613 234.998C317.613 239.242 321.052 242.681 325.296 242.681Z" fill="black"/>
<path d="M79.9065 303.725C78.1472 303.725 76.4813 302.683 75.7642 300.957C74.8192 298.671 75.9061 296.049 78.1883 295.101L129.625 273.792C131.911 272.839 134.533 273.93 135.482 276.216C136.427 278.502 135.34 281.124 133.058 282.072L81.6172 303.382C81.0569 303.617 80.478 303.725 79.9065 303.725Z" fill="black"/>
<path d="M171.96 265.593C170.2 265.593 168.531 264.551 167.817 262.825C166.869 260.539 167.959 257.917 170.245 256.968L195.226 246.622C197.508 245.677 200.134 246.76 201.083 249.05C202.028 251.336 200.941 253.958 198.655 254.907L173.674 265.253C173.114 265.485 172.531 265.593 171.96 265.593Z" fill="black"/>
<path d="M22.0338 327.694C20.2745 327.694 18.6049 326.652 17.8915 324.926C16.9465 322.64 18.0334 320.018 20.3193 319.069L33.8332 313.474C36.1191 312.525 38.7412 313.616 39.6899 315.902C40.6349 318.188 39.548 320.81 37.262 321.759L23.7482 327.354C23.1842 327.586 22.6052 327.694 22.0338 327.694Z" fill="black"/>
<path d="M58.2948 318.248C63.8481 318.248 68.3499 313.746 68.3499 308.193C68.3499 302.639 63.8481 298.137 58.2948 298.137C52.7416 298.137 48.2397 302.639 48.2397 308.193C48.2397 313.746 52.7416 318.248 58.2948 318.248Z" fill="black"/>
<path d="M151.577 277.235C155.82 277.235 159.26 273.795 159.26 269.552C159.26 265.309 155.82 261.869 151.577 261.869C147.333 261.869 143.894 265.309 143.894 269.552C143.894 273.795 147.333 277.235 151.577 277.235Z" fill="black"/>
<path d="M338.657 196.545C336.897 196.545 335.228 195.502 334.514 193.777C333.566 191.491 334.656 188.869 336.942 187.92L388.379 166.615C390.661 165.67 393.287 166.753 394.236 169.042C395.181 171.328 394.094 173.951 391.808 174.899L340.371 196.205C339.811 196.436 339.228 196.545 338.657 196.545Z" fill="black"/>
<path d="M273.06 223.718C271.3 223.718 269.631 222.676 268.917 220.95C267.972 218.664 269.059 216.042 271.345 215.093L296.326 204.747C298.612 203.798 301.234 204.889 302.183 207.175C303.131 209.461 302.041 212.083 299.755 213.032L274.774 223.378C274.214 223.606 273.631 223.718 273.06 223.718Z" fill="black"/>
<path d="M434.456 156.866C432.697 156.866 431.031 155.824 430.314 154.098C429.369 151.812 430.456 149.19 432.742 148.241L446.252 142.642C448.538 141.694 451.16 142.784 452.109 145.066C453.054 147.352 451.967 149.974 449.681 150.923L436.167 156.522C435.61 156.754 435.028 156.866 434.456 156.866Z" fill="black"/>
<path d="M411.701 171.863C417.255 171.863 421.757 167.361 421.757 161.808C421.757 156.254 417.255 151.752 411.701 151.752C406.148 151.752 401.646 156.254 401.646 161.808C401.646 167.361 406.148 171.863 411.701 171.863Z" fill="black"/>
<path d="M318.423 208.127C322.666 208.127 326.106 204.687 326.106 200.444C326.106 196.201 322.666 192.761 318.423 192.761C314.18 192.761 310.74 196.201 310.74 200.444C310.74 204.687 314.18 208.127 318.423 208.127Z" fill="black"/>
<path d="M116.295 358.188C115.148 358.188 114.001 357.751 113.123 356.873C111.372 355.121 111.372 352.282 113.123 350.534L152.492 311.166C154.244 309.414 157.083 309.414 158.831 311.166C160.582 312.917 160.582 315.756 158.831 317.504L119.458 356.873C118.588 357.747 117.441 358.188 116.295 358.188Z" fill="black"/>
<path d="M186.751 287.731C185.604 287.731 184.458 287.294 183.58 286.416C181.828 284.665 181.828 281.826 183.58 280.078L202.7 260.958C204.452 259.206 207.291 259.206 209.039 260.958C210.791 262.709 210.791 265.548 209.039 267.296L189.918 286.416C189.044 287.294 187.898 287.731 186.751 287.731Z" fill="black"/>
<path d="M71.9992 402.479C70.8525 402.479 69.7058 402.042 68.828 401.165C67.0762 399.413 67.0762 396.574 68.828 394.826L79.1707 384.483C80.9225 382.731 83.7612 382.731 85.5093 384.483C87.2611 386.235 87.2611 389.074 85.5093 390.822L75.1666 401.165C74.2926 402.042 73.1459 402.479 71.9992 402.479Z" fill="black"/>
<path d="M99.7551 380.296C105.308 380.296 109.81 375.794 109.81 370.241C109.81 364.688 105.308 360.186 99.7551 360.186C94.2019 360.186 89.7001 364.688 89.7001 370.241C89.7001 375.794 94.2019 380.296 99.7551 380.296Z" fill="black"/>
<path d="M171.149 306.53C175.393 306.53 178.832 303.091 178.832 298.847C178.832 294.604 175.393 291.164 171.149 291.164C166.906 291.164 163.466 294.604 163.466 298.847C163.466 303.091 166.906 306.53 171.149 306.53Z" fill="black"/>
<path d="M314.337 160.145C313.19 160.145 312.043 159.708 311.166 158.831C309.414 157.079 309.414 154.24 311.166 152.492L350.534 113.123C352.286 111.371 355.125 111.371 356.873 113.123C358.625 114.875 358.625 117.714 356.873 119.462L317.504 158.834C316.63 159.708 315.484 160.145 314.337 160.145Z" fill="black"/>
<path d="M264.129 210.35C262.982 210.35 261.835 209.913 260.958 209.039C259.206 207.287 259.206 204.448 260.958 202.7L280.078 183.58C281.83 181.828 284.668 181.828 286.416 183.58C288.168 185.332 288.168 188.17 286.416 189.918L267.296 209.039C266.422 209.913 265.275 210.35 264.129 210.35Z" fill="black"/>
<path d="M387.654 86.824C386.508 86.824 385.361 86.387 384.483 85.5129C382.731 83.7611 382.731 80.9224 384.483 79.1744L394.826 68.8317C396.578 67.0799 399.416 67.0799 401.165 68.8317C402.916 70.5835 402.916 73.4222 401.165 75.1702L390.822 85.5129C389.952 86.387 388.805 86.824 387.654 86.824Z" fill="black"/>
<path d="M370.241 109.81C375.794 109.81 380.296 105.308 380.296 99.7551C380.296 94.2019 375.794 89.7001 370.241 89.7001C364.688 89.7001 360.186 94.2019 360.186 99.7551C360.186 105.308 364.688 109.81 370.241 109.81Z" fill="black"/>
<path d="M298.847 178.832C303.09 178.832 306.53 175.393 306.53 171.149C306.53 166.906 303.09 163.466 298.847 163.466C294.604 163.466 291.164 166.906 291.164 171.149C291.164 175.393 294.604 178.832 298.847 178.832Z" fill="black"/>
<path d="M170.757 394.576C170.185 394.576 169.603 394.467 169.046 394.236C166.76 393.287 165.673 390.665 166.618 388.379L187.924 336.942C188.869 334.652 191.495 333.569 193.781 334.514C196.066 335.463 197.153 338.085 196.208 340.371L174.903 391.808C174.186 393.534 172.512 394.576 170.757 394.576Z" fill="black"/>
<path d="M208.886 302.523C208.314 302.523 207.731 302.414 207.175 302.183C204.889 301.234 203.802 298.612 204.747 296.326L215.093 271.345C216.038 269.055 218.664 267.972 220.95 268.917C223.236 269.866 224.323 272.488 223.378 274.774L213.032 299.755C212.314 301.48 210.645 302.523 208.886 302.523Z" fill="black"/>
<path d="M146.785 452.452C146.213 452.452 145.631 452.344 145.074 452.112C142.788 451.164 141.701 448.545 142.646 446.256L148.245 432.742C149.19 430.452 151.816 429.365 154.102 430.314C156.388 431.263 157.475 433.885 156.53 436.171L150.931 449.685C150.214 451.41 148.54 452.452 146.785 452.452Z" fill="black"/>
<path d="M161.808 421.757C167.361 421.757 171.863 417.255 171.863 411.702C171.863 406.148 167.361 401.646 161.808 401.646C156.254 401.646 151.752 406.148 151.752 411.702C151.752 417.255 156.254 421.757 161.808 421.757Z" fill="black"/>
<path d="M200.444 326.106C204.687 326.106 208.127 322.667 208.127 318.423C208.127 314.18 204.687 310.74 200.444 310.74C196.201 310.74 192.761 314.18 192.761 318.423C192.761 322.667 196.201 326.106 200.444 326.106Z" fill="black"/>
<path d="M277.934 135.826C277.362 135.826 276.78 135.717 276.219 135.486C273.934 134.537 272.847 131.915 273.792 129.629L295.097 78.1883C296.042 75.8986 298.672 74.8191 300.954 75.7604C303.24 76.7091 304.327 79.3312 303.382 81.6171L282.076 133.054C281.363 134.784 279.693 135.826 277.934 135.826Z" fill="black"/>
<path d="M250.764 201.423C250.193 201.423 249.61 201.314 249.05 201.083C246.764 200.134 245.677 197.512 246.622 195.226L256.968 170.245C257.913 167.956 260.539 166.872 262.825 167.817C265.111 168.766 266.198 171.388 265.253 173.674L254.907 198.655C254.193 200.381 252.52 201.423 250.764 201.423Z" fill="black"/>
<path d="M317.613 40.0261C317.041 40.0261 316.462 39.9178 315.898 39.6862C313.612 38.7374 312.525 36.1154 313.474 33.8294L319.073 20.3193C320.018 18.0334 322.64 16.9465 324.93 17.8915C327.216 18.8402 328.303 21.4623 327.358 23.7482L321.759 37.262C321.042 38.984 319.372 40.0261 317.613 40.0261Z" fill="black"/>
<path d="M308.193 68.3499C313.746 68.3499 318.248 63.8481 318.248 58.2948C318.248 52.7416 313.746 48.2397 308.193 48.2397C302.639 48.2397 298.137 52.7416 298.137 58.2948C298.137 63.8481 302.639 68.3499 308.193 68.3499Z" fill="black"/>
<path d="M269.556 159.26C273.799 159.26 277.239 155.82 277.239 151.577C277.239 147.333 273.799 143.894 269.556 143.894C265.313 143.894 261.873 147.333 261.873 151.577C261.873 155.82 265.313 159.26 269.556 159.26Z" fill="black"/>
</svg>
