<svg width="38" height="38" viewBox="0 0 38 38" fill="none" xmlns="http://www.w3.org/2000/svg">
<path d="M28.9681 16.3907L20.1296 1.61151C20.0014 1.42242 19.8319 1.26825 19.6355 1.16188C19.439 1.0555 19.2211 1 19 1C18.7789 1 18.561 1.0555 18.3646 1.16188C18.1681 1.26825 17.9986 1.42242 17.8704 1.61151L8.99213 16.4624C7.75892 18.551 7.07179 20.9439 7 23.4001C7 26.7418 8.26428 29.9467 10.5147 32.3096C12.7652 34.6725 15.8174 36 19 36C22.1826 36 25.2348 34.6725 27.4853 32.3096C29.7357 29.9467 31 26.7418 31 23.4001C30.9233 20.9164 30.2223 18.4981 28.9681 16.3907ZM19 33.2007C16.5256 33.1974 14.1535 32.1639 12.4038 30.3268C10.6541 28.4897 9.66981 25.9989 9.66667 23.4008C9.73747 21.4427 10.2977 19.5385 11.2911 17.8796L15.6667 10.8003L23.6667 31.8001C22.7942 32.8377 24.0244 31.7663 22.8229 32.3358C21.6214 32.9052 20.3183 33.2001 19 33.2007Z" fill="black"/>
</svg>
