<svg width="216" height="206" viewBox="0 0 216 206" fill="none" xmlns="http://www.w3.org/2000/svg">
<path d="M130.5 79.5L106.5 1L116.5 67.5L1 79L130.5 79.5Z" fill="black"/>
<path d="M134 80.5L134.5 21L143 75L197 131.5L134 80.5Z" fill="black"/>
<path d="M134 85L190 155L140.5 107L134.5 204.5L134 85Z" fill="black"/>
<path d="M128.5 82.5L6.5 96H81.5L20 138.5L128.5 82.5Z" fill="black"/>
<path d="M130 85.5L32 176.5L95.5 138.5L83.5 204.5L130 85.5Z" fill="black"/>
<path d="M131.5 87.5L102.5 204.5L121 155L122.5 204.5L131.5 87.5Z" fill="black"/>
<path d="M130.5 79.5L106.5 1L116.5 67.5L1 79L130.5 79.5Z" stroke="black" stroke-linejoin="round"/>
<path d="M134 80.5L134.5 21L143 75L197 131.5L134 80.5Z" stroke="black" stroke-linejoin="round"/>
<path d="M134 85L190 155L140.5 107L134.5 204.5L134 85Z" stroke="black" stroke-linejoin="round"/>
<path d="M128.5 82.5L6.5 96H81.5L20 138.5L128.5 82.5Z" stroke="black" stroke-linejoin="round"/>
<path d="M130 85.5L32 176.5L95.5 138.5L83.5 204.5L130 85.5Z" stroke="black" stroke-linejoin="round"/>
<path d="M131.5 87.5L102.5 204.5L121 155L122.5 204.5L131.5 87.5Z" stroke="black" stroke-linejoin="round"/>
<path d="M111.5 95.5L21.5 144L67 126.5L30 170L111.5 95.5Z" fill="black"/>
<path d="M70.5 82H1.5L18.5 85.5L4.5 92.5L70.5 82Z" fill="black"/>
<path d="M111.5 95.5L21.5 144L67 126.5L30 170L111.5 95.5Z" stroke="black" stroke-linejoin="round"/>
<path d="M70.5 82H1.5L18.5 85.5L4.5 92.5L70.5 82Z" stroke="black" stroke-linejoin="round"/>
<path d="M131.5 76L115 6.5L123.25 12.5L131.5 18.5V76Z" fill="black" stroke="black" stroke-linejoin="round"/>
<path d="M114 65L100.5 6.5L94.5 37L61 34.5L114 65Z" fill="black"/>
<path d="M110.5 65L51 42.5L67.5 57.5L7 74L110.5 65Z" fill="black"/>
<path d="M144.5 73V28L153 53.5H179.5L144.5 73Z" fill="black"/>
<path d="M145.5 74.5L189 60.5L170 73L211 90L145.5 74.5Z" fill="black"/>
<path d="M148 77L208 99.5L175.5 95L199 126.5L148 77Z" fill="black"/>
<path d="M169 191.5L189.5 157.5L174 205H136.5L169 191.5Z" fill="black"/>
<path d="M41 205L33 179L45 200L81 205H41Z" fill="black"/>
<path d="M63 101.5L18 134.5L24.5 111L7 100L63 101.5Z" fill="black"/>
<path d="M114 65L100.5 6.5L94.5 37L61 34.5L114 65Z" stroke="black" stroke-linejoin="round"/>
<path d="M110.5 65L51 42.5L67.5 57.5L7 74L110.5 65Z" stroke="black" stroke-linejoin="round"/>
<path d="M144.5 73V28L153 53.5H179.5L144.5 73Z" stroke="black" stroke-linejoin="round"/>
<path d="M145.5 74.5L189 60.5L170 73L211 90L145.5 74.5Z" stroke="black" stroke-linejoin="round"/>
<path d="M148 77L208 99.5L175.5 95L199 126.5L148 77Z" stroke="black" stroke-linejoin="round"/>
<path d="M169 191.5L189.5 157.5L174 205H136.5L169 191.5Z" stroke="black" stroke-linejoin="round"/>
<path d="M41 205L33 179L45 200L81 205H41Z" stroke="black" stroke-linejoin="round"/>
<path d="M63 101.5L18 134.5L24.5 111L7 100L63 101.5Z" stroke="black" stroke-linejoin="round"/>
<path d="M215 79L193.5 64L211 79.5L212 88L215 79Z" fill="black"/>
<path d="M139.5 198.5L143.5 117L186.5 156.5L151.5 138L139.5 198.5Z" fill="black"/>
<path d="M79.5 163.5L36.5 178L90 148L79.5 201.5V163.5Z" fill="black"/>
<path d="M215 79L193.5 64L211 79.5L212 88L215 79Z" stroke="black" stroke-linejoin="round"/>
<path d="M139.5 198.5L143.5 117L186.5 156.5L151.5 138L139.5 198.5Z" stroke="black" stroke-linejoin="round"/>
<path d="M79.5 163.5L36.5 178L90 148L79.5 201.5V163.5Z" stroke="black" stroke-linejoin="round"/>
</svg>
