<svg width="143" height="143" viewBox="0 0 143 143" fill="none" xmlns="http://www.w3.org/2000/svg">
<rect width="143" height="143" rx="71.5" fill="white"/>
<path d="M45.5 58L57.1913 64.75V78.25L45.5 85L33.8087 78.25V64.75L45.5 58Z" fill="#C4C4C4"/>
<path d="M19.5 58L31.1913 64.75V78.25L19.5 85L7.80866 78.25V64.75L19.5 58Z" fill="#686868"/>
<path d="M32.5 81L44.1913 87.75V101.25L32.5 108L20.8087 101.25V87.75L32.5 81Z" fill="#686868"/>
<path d="M58.5 81L70.1913 87.75V101.25L58.5 108L46.8087 101.25V87.75L58.5 81Z" fill="#686868"/>
<path d="M76.3087 88.616L86.5 82.7321L96.6913 88.616V100.384L86.5 106.268L76.3087 100.384V88.616Z" fill="black" stroke="black" stroke-width="3"/>
<path d="M99.5 58L111.191 64.75V78.25L99.5 85L87.8087 78.25V64.75L99.5 58Z" fill="#C4C4C4"/>
<path d="M112.5 81L124.191 87.75V101.25L112.5 108L100.809 101.25V87.75L112.5 81Z" fill="#C4C4C4"/>
<path d="M99.5 104L111.191 110.75V124.25L99.5 131L87.8087 124.25V110.75L99.5 104Z" fill="#C4C4C4"/>
<path d="M62.3087 111.616L72.5 105.732L82.6913 111.616V123.384L72.5 129.268L62.3087 123.384V111.616Z" fill="black" stroke="black" stroke-width="3"/>
<path d="M35.3087 111.616L45.5 105.732L55.6913 111.616V123.384L45.5 129.268L35.3087 123.384V111.616Z" fill="black" stroke="black" stroke-width="3"/>
<path d="M125.5 58L137.191 64.75V78.25L125.5 85L113.809 78.25V64.75L125.5 58Z" fill="#686868"/>
<path d="M112.5 35L124.191 41.75V55.25L112.5 62L100.809 55.25V41.75L112.5 35Z" fill="#686868"/>
<path d="M88.3087 19.616L98.5 13.7321L108.691 19.616V31.384L98.5 37.268L88.3087 31.384V19.616Z" fill="black" stroke="black" stroke-width="3"/>
<path d="M61.3087 19.616L71.5 13.7321L81.6913 19.616V31.384L71.5 37.268L61.3087 31.384V19.616Z" fill="black" stroke="black" stroke-width="3"/>
<path d="M32.5 36L44.1913 42.75V56.25L32.5 63L20.8087 56.25V42.75L32.5 36Z" fill="#C4C4C4"/>
<path d="M45.5 13L57.1913 19.75V33.25L45.5 40L33.8087 33.25V19.75L45.5 13Z" fill="#C4C4C4"/>
<path d="M85.5 35L97.1913 41.75V55.25L85.5 62L73.8087 55.25V41.75L85.5 35Z" fill="#686868"/>
<path d="M48.3087 42.616L58.5 36.7321L68.6913 42.616V54.384L58.5 60.268L48.3087 54.384V42.616Z" fill="black" stroke="black" stroke-width="3"/>
</svg>
