<?xml version="1.0" encoding="iso-8859-1"?>
<!-- Generator: Adobe Illustrator 19.0.0, SVG Export Plug-In . SVG Version: 6.00 Build 0)  -->
<svg version="1.1" id="Layer_1" xmlns="http://www.w3.org/2000/svg" xmlns:xlink="http://www.w3.org/1999/xlink" x="0px" y="0px"
	 viewBox="0 0 512 512" style="enable-background:new 0 0 512 512;" xml:space="preserve">
<g>
	<g>
		<rect x="333.913" y="445.217" width="33.391" height="33.391"/>
	</g>
</g>
<g>
	<g>
		<rect x="267.13" y="478.609" width="66.783" height="33.391"/>
	</g>
</g>
<g>
	<g>
		<rect x="233.739" y="256" width="33.391" height="222.609"/>
	</g>
</g>
<g>
	<g>
		<rect x="66.783" y="100.174" width="33.391" height="33.391"/>
	</g>
</g>
<g>
	<g>
		<rect x="100.174" y="66.783" width="66.783" height="33.391"/>
	</g>
</g>
<g>
	<g>
		<rect x="345.043" y="66.783" width="66.783" height="33.391"/>
	</g>
</g>
<g>
	<g>
		<rect x="33.391" y="133.565" width="33.391" height="33.391"/>
	</g>
</g>
<g>
	<g>
		<polygon points="267.13,33.391 267.13,0 233.739,0 233.739,33.391 166.957,33.391 166.957,66.783 345.043,66.783 345.043,33.391 
					"/>
	</g>
</g>
<g>
	<g>
		<polygon points="33.391,222.609 33.391,166.957 0,166.957 0,256 0,289.391 33.391,289.391 33.391,256 111.304,256 
			111.304,222.609 		"/>
	</g>
</g>
<g>
	<g>
		<rect x="144.696" y="222.609" width="89.043" height="33.391"/>
	</g>
</g>
<g>
	<g>
		<rect x="267.13" y="222.609" width="100.174" height="33.391"/>
	</g>
</g>
<g>
	<g>
		<rect x="411.826" y="100.174" width="33.391" height="33.391"/>
	</g>
</g>
<g>
	<g>
		<rect x="445.217" y="133.565" width="33.391" height="33.391"/>
	</g>
</g>
<g>
	<g>
		<polygon points="478.609,166.957 478.609,222.609 400.696,222.609 400.696,256 478.609,256 478.609,289.391 512,289.391 512,256 
			512,166.957 		"/>
	</g>
</g>
<g>
	<g>
		<rect x="111.304" y="256" width="33.391" height="33.391"/>
	</g>
</g>
<g>
	<g>
		<rect x="367.304" y="256" width="33.391" height="33.391"/>
	</g>
</g>
<g>
</g>
<g>
</g>
<g>
</g>
<g>
</g>
<g>
</g>
<g>
</g>
<g>
</g>
<g>
</g>
<g>
</g>
<g>
</g>
<g>
</g>
<g>
</g>
<g>
</g>
<g>
</g>
<g>
</g>
</svg>
